Coordinates
version=1
nRows=7
nColumns=40
inDegrees=yes

Units are S.I. units (second, meters, Newtons, ...)
Angles are in degrees.

endheader
time	pelvis_tilt	pelvis_list	pelvis_rotation	pelvis_tx	pelvis_ty	pelvis_tz	hip_flexion_r	hip_adduction_r	hip_rotation_r	knee_angle_r	knee_angle_r_beta	ankle_angle_r	subtalar_angle_r	mtp_angle_r	hip_flexion_l	hip_adduction_l	hip_rotation_l	knee_angle_l	knee_angle_l_beta	ankle_angle_l	subtalar_angle_l	mtp_angle_l	lumbar_extension	lumbar_bending	lumbar_rotation	arm_flex_r	arm_add_r	arm_rot_r	elbow_flex_r	pro_sup_r	wrist_flex_r	wrist_dev_r	arm_flex_l	arm_add_l	arm_rot_l	elbow_flex_l	pro_sup_l	wrist_flex_l	wrist_dev_l
      5.25000000	      8.31659838	     29.60196278	     80.71060284	      0.60190217	      1.01962934	     -1.05219455	    -22.20063749	      6.49892531	      5.95342348	     10.40933547	      0.18167718	      8.94831912	      0.00000000	      0.00000000	    -23.94461415	     -8.00659284	    -11.94938955	     56.16960989	      0.98034463	      0.28061958	      0.00000000	      0.00000000	    -42.11548623	      5.64314452	      6.76886732	      6.96437604	    -14.73020837	      6.57368622	    136.26002639	     86.12725436	      0.00000000	      0.00000000	      0.41891142	     -5.31100194	      3.42875145	    137.64938758	     84.77029768	      0.00000000	      0.00000000
      5.26000000	      7.72509994	     29.47273991	     80.80280090	      0.60229869	      1.02195834	     -1.05091831	    -23.19405171	      5.80327578	      6.04383425	      9.53793415	      0.16646835	      8.99377231	      0.00000000	      0.00000000	    -22.24940121	     -7.64743404	    -12.05089104	     55.88124755	      0.97531176	      0.86033878	      0.00000000	      0.00000000	    -42.02926297	      5.07118970	      6.97368701	      7.20895486	    -15.29912600	      6.98433011	    136.29098017	     86.02718564	      0.00000000	      0.00000000	      0.46660944	     -5.52257602	      3.61241303	    137.56848494	     84.67610525	      0.00000000	      0.00000000
      5.27000000	      7.14409572	     29.67467359	     81.30919303	      0.60216249	      1.02445349	     -1.05004344	    -24.88738711	      5.21194186	      5.61705121	      8.01097911	      0.13981796	      8.70354472	      0.00000000	      0.00000000	    -20.93143512	     -7.33539065	    -11.65029163	     55.32255162	      0.96556068	      1.76949412	      0.00000000	      0.00000000	    -42.21189972	      4.70937035	      6.79129156	      7.46475401	    -15.70579334	      7.21107860	    136.26902540	     86.20519312	      0.00000000	      0.00000000	      0.48364854	     -5.81368466	      3.65483465	    137.61467067	     84.82852273	      0.00000000	      0.00000000
      5.28000000	      6.58970880	     29.55128911	     81.48966713	      0.60248120	      1.02627859	     -1.04867193	    -25.98995107	      4.60487127	      5.68397278	      6.93371741	      0.12101620	      8.73991805	      0.00000000	      0.00000000	    -19.33706743	     -7.07005872	    -11.74986869	     54.65999437	      0.95399687	      2.82139215	      0.00000000	      0.00000000	    -42.15806379	      4.19650489	      6.90343497	      7.78592689	    -16.17724897	      7.37182960	    136.22068321	     86.19924224	      0.00000000	      0.00000000	      0.53611104	     -5.96620272	      3.74964825	    137.58486033	     84.83246985	      0.00000000	      0.00000000
      5.29000000	      6.17906050	     29.40167335	     81.48000898	      0.60292635	      1.02785478	     -1.04714921	    -26.94866453	      4.06669946	      5.51049494	      6.05093762	      0.10560878	      8.60574961	      0.00000000	      0.00000000	    -17.82397858	     -6.94914828	    -12.15525594	     53.80384718	      0.93905428	      3.57531247	      0.00000000	      0.00000000	    -42.14186833	      3.74319250	      7.15944554	      8.06200510	    -16.63412092	      7.63940067	    136.29243806	     86.17604603	      0.00000000	      0.00000000	      0.56704973	     -6.15482233	      3.84311109	    137.55986742	     84.83016175	      0.00000000	      0.00000000
      5.30000000	      5.79008953	     29.15047316	     81.47203208	      0.60341489	      1.02911543	     -1.04540027	    -27.73029311	      3.58081591	      5.43474950	      5.26852759	      0.09195315	      8.72192749	      0.00000000	      0.00000000	    -16.28972748	     -6.80668411	    -12.40216185	     52.61030924	      0.91822312	      4.14660656	      0.00000000	      0.00000000	    -42.06117587	      3.30995127	      7.44296397	      8.31322419	    -17.05704794	      7.84885536	    136.34649972	     86.09114644	      0.00000000	      0.00000000	      0.64557748	     -6.30821066	      3.95229075	    137.50875931	     84.77925475	      0.00000000	      0.00000000
      5.31000000	      5.48445321	     28.87929289	     81.42708669	      0.60395504	      1.02996726	     -1.04331240	    -28.41273825	      3.17944549	      5.42904619	      4.58995124	      0.08010976	      8.86254513	      0.00000000	      0.00000000	    -14.80345516	     -6.73541529	    -12.62844397	     51.24121737	      0.89432796	      4.95397640	      0.00000000	      0.00000000	    -42.01473688	      2.91225771	      7.75565575	      8.67137149	    -17.47896329	      7.93609576	    136.36842951	     86.07138665	      0.00000000	      0.00000000	      0.74983170	     -6.45175950	      4.07550058	    137.47882871	     84.76973662	      0.00000000	      0.00000000
